<?xml version="1.0" encoding="UTF-8" standalone="no"?>
<svg width="640" height="480" viewBox="0 0 640 480" xmlns="http://www.w3.org/2000/svg" role="img" aria-label="Pelican riding a bicycle">
  <title>Pelican Riding a Bicycle</title>
  <defs>
    <linearGradient id="bgGrad" x1="0" y1="0" x2="0" y2="1">
      <stop offset="0%" stop-color="#bfe7ff"/>
      <stop offset="100%" stop-color="#eef8ff"/>
    </linearGradient>
    <linearGradient id="sunGrad" x1="0" y1="0" x2="0" y2="1">
      <stop offset="0%" stop-color="#ffd86e"/>
      <stop offset="100%" stop-color="#ffa34d"/>
    </linearGradient>
    <linearGradient id="seaGrad" x1="0" y1="0" x2="0" y2="1">
      <stop offset="0%" stop-color="#9fd3f3"/>
      <stop offset="100%" stop-color="#6bb3e6"/>
    </linearGradient>
    <linearGradient id="steel" x1="0" y1="0" x2="1" y2="0">
      <stop offset="0%" stop-color="#6d7b86"/>
      <stop offset="100%" stop-color="#9aa6ae"/>
    </linearGradient>
    <linearGradient id="tire" x1="0" y1="0" x2="1" y2="0">
      <stop offset="0%" stop-color="#1f1f1f"/>
      <stop offset="100%" stop-color="#3a3a3a"/>
    </linearGradient>
    <linearGradient id="beakGrad" x1="0" y1="0" x2="1" y2="0">
      <stop offset="0%" stop-color="#f3b23c"/>
      <stop offset="100%" stop-color="#f6c25f"/>
    </linearGradient>
    <filter id="shadow" x="-30%" y="-30%" width="160%" height="160%">
      <feDropShadow dx="0" dy="2" stdDeviation="3" flood-color="#000" flood-opacity="0.25"/>
    </filter>
  </defs>

  <!-- Background -->
  <rect x="0" y="0" width="640" height="480" fill="url(#bgGrad)"/>
  <circle cx="560" cy="80" r="42" fill="url(#sunGrad)" opacity="0.9"/>

  <!-- Horizon and water -->
  <rect x="0" y="360" width="640" height="120" fill="url(#seaGrad)"/>
  <rect x="0" y="340" width="640" height="28" fill="#cfe0ea"/>

  <!-- Subtle clouds -->
  <g fill="#ffffff" opacity="0.9">
    <ellipse cx="100" cy="90" rx="42" ry="22"/>
    <ellipse cx="130" cy="92" rx="28" ry="16"/>
    <ellipse cx="75" cy="94" rx="22" ry="12"/>

    <ellipse cx="420" cy="120" rx="40" ry="20"/>
    <ellipse cx="450" cy="122" rx="26" ry="16"/>
    <ellipse cx="395" cy="123" rx="20" ry="12"/>
  </g>

  <!-- Scene group -->
  <g transform="translate(70,30)">

    <!-- Bicycle -->
    <g id="bike" filter="url(#shadow)">
      <!-- wheels -->
      <g transform="translate(140,300)">
        <circle r="58" fill="none" stroke="url(#tire)" stroke-width="10"/>
        <circle r="42" fill="#e9eef2" stroke="#90a4ae" stroke-width="4"/>
        <!-- spokes -->
        <g stroke="#9aa3ae" stroke-width="2">
          <line x1="0" y1="0" x2="42" y2="0"/>
          <line x1="0" y1="0" x2="-42" y2="0"/>
          <line x1="0" y1="0" x2="0" y2="42"/>
          <line x1="0" y1="0" x2="0" y2="-42"/>
          <line x1="0" y1="0" x2="29.7" y2="29.7"/>
          <line x1="0" y1="0" x2="-29.7" y2="29.7"/>
          <line x1="0" y1="0" x2="29.7" y2="-29.7"/>
          <line x1="0" y1="0" x2="-29.7" y2="-29.7"/>
        </g>
      </g>

      <g transform="translate(350,300)">
        <circle r="58" fill="none" stroke="url(#tire)" stroke-width="10"/>
        <circle r="42" fill="#e9eef2" stroke="#90a4ae" stroke-width="4"/>
        <g stroke="#9aa3ae" stroke-width="2">
          <line x1="0" y1="0" x2="42" y2="0"/>
          <line x1="0" y1="0" x2="-42" y2="0"/>
          <line x1="0" y1="0" x2="0" y2="42"/>
          <line x1="0" y1="0" x2="0" y2="-42"/>
          <line x1="0" y1="0" x2="29.7" y2="29.7"/>
          <line x1="0" y1="0" x2="-29.7" y2="29.7"/>
          <line x1="0" y1="0" x2="29.7" y2="-29.7"/>
          <line x1="0" y1="0" x2="-29.7" y2="-29.7"/>
        </g>
      </g>

      <!-- frame -->
      <g stroke="url(#steel)" stroke-width="10" fill="none" stroke-linecap="round">
        <path d="M140 300 L230 230 L290 230 L350 300"/>
        <path d="M230 230 L260 180"/>
        <circle cx="230" cy="230" r="7" fill="#607d8b"/>
        <circle cx="290" cy="230" r="7" fill="#607d8b"/>

        <!-- fork and handlebar stem -->
        <path d="M260 180 L290 150" stroke="#444" stroke-width="8"/>
        <!-- seat stay / chain stay hints -->
        <path d="M230 230 L198 260" stroke="#444" stroke-width="8"/>
      </g>

      <!-- handlebar -->
      <rect x="276" y="140" width="40" height="12" rx="6" fill="#222"/>
      <rect x="282" y="150" width="28" height="60" rx="8" fill="#333"/>

      <!-- crankset and pedals -->
      <g transform="translate(230,230)">
        <circle r="10" fill="#455a64"/>
        <path d="M0 0 L20 25" stroke="#455a64" stroke-width="8" stroke-linecap="round"/>
        <path d="M0 0 L-22 -26" stroke="#455a64" stroke-width="8" stroke-linecap="round"/>
        <rect x="20" y="25" width="16" height="6" rx="2" fill="#2f3441"/>
        <rect x="-38" y="-32" width="16" height="6" rx="2" fill="#2f3441"/>
      </g>
    </g>

    <!-- Pelican -->
    <g id="pelican" transform="translate(170,60)" filter="url(#shadow)">
      <!-- body -->
      <ellipse cx="70" cy="160" rx="72" ry="55" fill="#f2f5f8" stroke="#d9e1e7" stroke-width="3"/>
      <ellipse cx="70" cy="142" rx="60" ry="40" fill="#eef3f7" opacity="0.9"/>

      <!-- head and eye -->
      <g transform="translate(60,85)">
        <ellipse cx="0" cy="0" rx="40" ry="35" fill="#f5f7f9" stroke="#d9e1e7" stroke-width="3"/>
        <circle cx="10" cy="-5" r="6" fill="#263238"/>
        <circle cx="9.5" cy="-5.5" r="2" fill="#ffffff" opacity="0.9"/>
        <path d="M-20 -20 Q10 -35 40 -18" fill="none" stroke="#cfd8dc" stroke-width="4" stroke-linecap="round"/>
      </g>

      <!-- beak -->
      <g transform="translate(110,90)">
        <path d="M0 0 C 28 -10, 68 10, 90 30 C 70 40, 40 50, 0 52 Z" fill="url(#beakGrad)" stroke="#d89022" stroke-width="3"/>
        <path d="M0 0 C 28 -10, 68 10, 90 30" fill="none" stroke="#e59a28" stroke-width="4" stroke-linecap="round"/>
        <path d="M0 52 C 40 50, 70 40, 90 30" fill="none" stroke="#eab75b" stroke-width="3" opacity="0.8"/>
      </g>

      <!-- wings -->
      <path d="M80 150 Q100 190 130 210" fill="none" stroke="#e0e7ee" stroke-width="14" stroke-linecap="round"/>
      <path d="M60 150 Q40 190 5 215" fill="none" stroke="#e0e7ee" stroke-width="14" stroke-linecap="round"/>

      <!-- feet on pedals -->
      <g transform="translate(135,210) rotate(12)">
        <path d="M0 0 C 20 -10, 40 -10, 56 0 C 40 14, 20 14, 0 0 Z" fill="#f0c15b" stroke="#d6a446" stroke-width="3"/>
        <rect x="50" y="-10" width="14" height="24" rx="6" fill="#222"/>
      </g>
      <g transform="translate(0,220) rotate(-12)">
        <path d="M0 0 C 20 -10, 40 -10, 56 0 C 40 14, 20 14, 0 0 Z" fill="#f0c15b" stroke="#d6a446" stroke-width="3"/>
        <rect x="-10" y="-10" width="14" height="24" rx="6" fill="#222"/>
      </g>

      <!-- wing detail -->
      <g transform="translate(30,120)">
        <path d="M0 0 C 40 20, 80 20, 120 0 C 100 40, 60 60, 20 40 Z" fill="#eaf1f6" stroke="#d9e1e7" stroke-width="3"/>
        <path d="M10 8 C 45 22, 75 22, 110 8" fill="none" stroke="#cfd8dc" stroke-width="3" opacity="0.8"/>
      </g>
    </g>
  </g>

  <!-- Ground shadow -->
  <ellipse cx="300" cy="372" rx="130" ry="16" fill="#000" opacity="0.15"/>

  <!-- Light wind hints -->
  <g opacity="0.25" stroke="#ffffff" stroke-width="2" fill="none">
    <path d="M30 70 q40 -20 80 0" />
    <path d="M110 110 q50 -20 100 0" />
    <path d="M440 130 q40 -16 80 0" />
  </g>
</svg>
