<svg xmlns="http://www.w3.org/2000/svg" viewBox="0 0 800 600" role="img" aria-label="Pelican riding a bicycle">
  <defs>
    <linearGradient id="sky" x1="0" y1="0" x2="0" y2="1">
      <stop offset="0%" stop-color="#bfe9ff"/>
      <stop offset="100%" stop-color="#f9fdff"/>
    </linearGradient>
    <linearGradient id="road" x1="0" y1="0" x2="0" y2="1">
      <stop offset="0%" stop-color="#7e7e7e"/>
      <stop offset="100%" stop-color="#606060"/>
    </linearGradient>
    <radialGradient id="tireShade" cx="50%" cy="50%" r="50%">
      <stop offset="0%" stop-color="#333"/>
      <stop offset="100%" stop-color="#111"/>
    </radialGradient>
    <radialGradient id="hub" cx="50%" cy="50%" r="50%">
      <stop offset="0%" stop-color="#fefefe"/>
      <stop offset="100%" stop-color="#cfcfcf"/>
    </radialGradient>
    <linearGradient id="frameGrad" x1="0" y1="0" x2="1" y2="1">
      <stop offset="0%" stop-color="#35aef3"/>
      <stop offset="100%" stop-color="#1e86cf"/>
    </linearGradient>
    <linearGradient id="feather" x1="0" y1="0" x2="0" y2="1">
      <stop offset="0%" stop-color="#ffffff"/>
      <stop offset="100%" stop-color="#e9f0f7"/>
    </linearGradient>
    <linearGradient id="beakGrad" x1="0" y1="0" x2="1" y2="0">
      <stop offset="0%" stop-color="#ffcc33"/>
      <stop offset="100%" stop-color="#ff9d00"/>
    </linearGradient>
  </defs>

  <rect width="100%" height="100%" fill="url(#sky)"/>
  <rect y="470" width="100%" height="130" fill="url(#road)"/>
  <line x1="0" y1="470" x2="800" y2="470" stroke="#555" stroke-width="2" opacity="0.5"/>

  <!-- Rear wheel -->
  <g transform="translate(290,470)">
    <circle r="68" fill="url(#tireShade)"/>
    <circle r="56" fill="#202020" stroke="#444" stroke-width="2"/>
    <circle r="50" fill="#1a1a1a"/>
    <circle r="6" fill="url(#hub)" stroke="#aaa" stroke-width="1"/>
    <g stroke="#cfd4d8" stroke-width="2">
      <line x1="0" y1="0" x2="0" y2="-50"/>
      <line x1="0" y1="0" x2="43.3" y2="-25"/>
      <line x1="0" y1="0" x2="50" y2="0"/>
      <line x1="0" y1="0" x2="43.3" y2="25"/>
      <line x1="0" y1="0" x2="0" y2="50"/>
      <line x1="0" y1="0" x2="-43.3" y2="25"/>
      <line x1="0" y1="0" x2="-50" y2="0"/>
      <line x1="0" y1="0" x2="-43.3" y2="-25"/>
    </g>
  </g>

  <!-- Front wheel -->
  <g transform="translate(510,470)">
    <circle r="68" fill="url(#tireShade)"/>
    <circle r="56" fill="#202020" stroke="#444" stroke-width="2"/>
    <circle r="50" fill="#1a1a1a"/>
    <circle r="6" fill="url(#hub)" stroke="#aaa" stroke-width="1"/>
    <g stroke="#cfd4d8" stroke-width="2">
      <line x1="0" y1="0" x2="0" y2="-50"/>
      <line x1="0" y1="0" x2="43.3" y2="-25"/>
      <line x1="0" y1="0" x2="50" y2="0"/>
      <line x1="0" y1="0" x2="43.3" y2="25"/>
      <line x1="0" y1="0" x2="0" y2="50"/>
      <line x1="0" y1="0" x2="-43.3" y2="25"/>
      <line x1="0" y1="0" x2="-50" y2="0"/>
      <line x1="0" y1="0" x2="-43.3" y2="-25"/>
    </g>
  </g>

  <!-- Bike frame -->
  <g>
    <path d="M300 410 L360 340 L470 360 L505 415" fill="none" stroke="url(#frameGrad)" stroke-width="12" stroke-linecap="round" stroke-linejoin="round"/>
    <line x1="360" y1="340" x2="410" y2="420" stroke="url(#frameGrad)" stroke-width="12" stroke-linecap="round"/>
    <line x1="300" y1="410" x2="410" y2="420" stroke="url(#frameGrad)" stroke-width="12" stroke-linecap="round"/>
    <line x1="410" y1="420" x2="505" y2="415" stroke="url(#frameGrad)" stroke-width="12" stroke-linecap="round"/>
    <!-- seat tube and seat -->
    <line x1="360" y1="340" x2="350" y2="300" stroke="url(#frameGrad)" stroke-width="10" stroke-linecap="round"/>
    <rect x="325" y="285" width="60" height="18" rx="9" fill="#2b2b2b"/>
    <!-- handlebars and fork -->
    <line x1="505" y1="415" x2="520" y2="340" stroke="url(#frameGrad)" stroke-width="10" stroke-linecap="round"/>
    <path d="M520 340 q30 -20 70 -10" fill="none" stroke="#2b2b2b" stroke-width="12" stroke-linecap="round"/>
    <circle cx="590" cy="328" r="7" fill="#2b2b2b"/>
    <!-- pedals and crank -->
    <circle cx="410" cy="420" r="18" fill="#cfd4d8" stroke="#9aa3a8" stroke-width="3"/>
    <line x1="410" y1="420" x2="435" y2="400" stroke="#9aa3a8" stroke-width="6" stroke-linecap="round"/>
    <line x1="410" y1="420" x2="388" y2="444" stroke="#9aa3a8" stroke-width="6" stroke-linecap="round"/>
    <rect x="433" y="394" width="22" height="8" rx="3" fill="#2b2b2b"/>
    <rect x="368" y="444" width="22" height="8" rx="3" fill="#2b2b2b" transform="rotate(-40 379 448)"/>
    <!-- chain -->
    <path d="M410 420 C 450 420, 470 415, 505 415" fill="none" stroke="#60656a" stroke-width="4"/>
    <path d="M410 420 C 450 430, 470 425, 505 425" fill="none" stroke="#60656a" stroke-width="4"/>
  </g>

  <!-- Pelican -->
  <g transform="translate(0,-10)">
    <!-- body -->
    <ellipse cx="360" cy="340" rx="85" ry="55" fill="url(#feather)" stroke="#d9d9d9" stroke-width="3"/>
    <!-- wing -->
    <path d="M315 330 q-40 30 -25 65 q50 10 110 -5 q-30 -35 -85 -60z" fill="#f4f7fb" stroke="#cfd8e3" stroke-width="2"/>
    <!-- tail -->
    <path d="M275 342 q-35 18 -48 12 q25 -25 55 -35" fill="#e9f0f7" stroke="#c6c6c6" stroke-width="2"/>
    <!-- neck -->
    <path d="M395 325 q40 -40 80 -35 q-25 30 -10 65 q-50 5 -70 -30z" fill="url(#feather)" stroke="#d9d9d9" stroke-width="3"/>
    <!-- head -->
    <circle cx="470" cy="305" r="28" fill="#ffffff" stroke="#cfd8e3" stroke-width="2"/>
    <!-- eye -->
    <circle cx="478" cy="300" r="5" fill="#1c1c1c"/>
    <circle cx="476.5" cy="299" r="2" fill="#ffffff" opacity="0.85"/>
    <!-- beak upper -->
    <path d="M488 310 c 40 0 70 15 90 18 c -30 10 -75 10 -105 0 z" fill="url(#beakGrad)" stroke="#d98900" stroke-width="3"/>
    <!-- pouch lower -->
    <path d="M485 312 c 48 20 58 40 5 45 c -22 2 -45 -5 -50 -18 c -3 -10 15 -19 45 -27z" fill="#ffb133" stroke="#d98900" stroke-width="3" opacity="0.95"/>
    <!-- legs -->
    <g fill="#ffb133" stroke="#cf9031" stroke-width="4" stroke-linecap="round">
      <path d="M345 380 q-10 40 -8 70" />
      <path d="M380 382 q5 40 10 72" />
    </g>
    <!-- feet on pedals -->
    <g fill="#ffb133" stroke="#cf9031" stroke-width="3">
      <path d="M365 452 q18 6 28 -2 q-10 16 -30 18 q-14 2 -20 -4 q8 -8 22 -12z" />
      <path d="M438 394 q20 2 25 -8 q-2 14 -20 20 q-10 3 -18 0 q5 -8 13 -12z" />
    </g>
    <!-- subtle belly shading -->
    <ellipse cx="360" cy="350" rx="65" ry="35" fill="#000" opacity="0.06"/>
  </g>

  <!-- motion lines -->
  <g stroke="#7abbe6" stroke-width="4" stroke-linecap="round" opacity="0.5">
    <line x1="210" y1="460" x2="250" y2="460"/>
    <line x1="200" y1="440" x2="245" y2="440"/>
    <line x1="220" y1="420" x2="260" y2="420"/>
  </g>

  <!-- shadow -->
  <ellipse cx="400" cy="490" rx="170" ry="20" fill="#000" opacity="0.15"/>
</svg>
