<?xml version="1.0" encoding="UTF-8" standalone="no"?>
<svg width="800" height="600" viewBox="0 0 800 600" xmlns="http://www.w3.org/2000/svg" role="img" aria-label="Pelican riding a bicycle">
  <defs>
    <linearGradient id="skyGrad" x1="0" y1="0" x2="0" y2="1">
      <stop offset="0%" stop-color="#b7e3ff"/>
      <stop offset="100%" stop-color="#e9f7ff"/>
    </linearGradient>
    <linearGradient id="beakGrad" x1="0" y1="0" x2="1" y2="0">
      <stop offset="0%" stop-color="#f3a81b"/>
      <stop offset="100%" stop-color="#ffcf4d"/>
    </linearGradient>
    <linearGradient id="bodyGrad" x1="0" y1="0" x2="0" y2="1">
      <stop offset="0%" stop-color="#ffffff"/>
      <stop offset="100%" stop-color="#e6eef2"/>
    </linearGradient>
    <linearGradient id="legGrad" x1="0" y1="0" x2="0" y2="1">
      <stop offset="0%" stop-color="#ffb26b"/>
      <stop offset="100%" stop-color="#ff8f3a"/>
    </linearGradient>
    <linearGradient id="tireGrad" x1="0" y1="0" x2="0" y2="1">
      <stop offset="0%" stop-color="#2b2b2b"/>
      <stop offset="100%" stop-color="#161616"/>
    </linearGradient>
    <linearGradient id="metalGrad" x1="0" y1="0" x2="1" y2="1">
      <stop offset="0%" stop-color="#cfd8df"/>
      <stop offset="100%" stop-color="#8f9aa3"/>
    </linearGradient>
    <filter id="shadow" x="-20%" y="-20%" width="140%" height="140%">
      <feDropShadow dx="0" dy="4" stdDeviation="6" flood-color="#000000" flood-opacity="0.25"/>
    </filter>
    <filter id="soft" x="-20%" y="-20%" width="140%" height="140%">
      <feGaussianBlur in="SourceGraphic" stdDeviation="1.2"/>
    </filter>
    <clipPath id="groundClip">
      <rect x="0" y="420" width="800" height="180" rx="0" ry="0"/>
    </clipPath>
  </defs>

  <!-- Background -->
  <rect x="0" y="0" width="800" height="600" fill="url(#skyGrad)"/>
  <!-- Sun -->
  <circle cx="690" cy="90" r="46" fill="#ffe37a" opacity="0.8"/>
  <circle cx="690" cy="90" r="70" fill="#ffe37a" opacity="0.18" filter="url(#soft)"/>
  <!-- Ground -->
  <rect x="0" y="420" width="800" height="180" fill="#c8e6b0"/>
  <g clip-path="#groundClip">
    <ellipse cx="400" cy="530" rx="520" ry="120" fill="#b4daa0"/>
    <ellipse cx="420" cy="560" rx="400" ry="80" fill="#a3cf92"/>
  </g>

  <!-- Distant hints -->
  <g opacity="0.25">
    <path d="M40 410 C150 360, 250 360, 360 410" fill="none" stroke="#9ac4e0" stroke-width="18" stroke-linecap="round"/>
    <path d="M460 400 C560 350, 650 350, 750 400" fill="none" stroke="#9ac4e0" stroke-width="14" stroke-linecap="round"/>
  </g>

  <!-- Bicycle group -->
  <g id="bicycle" transform="translate(140, 0)">
    <!-- Wheels -->
    <g transform="translate(180,410)" filter="url(#shadow)">
      <circle r="88" fill="url(#tireGrad)"/>
      <circle r="70" fill="#f7f9fb" stroke="#aab5bd" stroke-width="3"/>
      <g stroke="#9aa6ae" stroke-width="2">
        <line x1="0" y1="-70" x2="0" y2="70"/>
        <line x1="-70" y1="0" x2="70" y2="0"/>
        <line x1="-49.5" y1="-49.5" x2="49.5" y2="49.5"/>
        <line x1="-49.5" y1="49.5" x2="49.5" y2="-49.5"/>
        <line x1="-20" y1="-67" x2="20" y2="67"/>
        <line x1="-67" y1="-20" x2="67" y2="20"/>
      </g>
      <circle r="6" fill="#7e8a92"/>
    </g>

    <g transform="translate(480,410)" filter="url(#shadow)">
      <circle r="88" fill="url(#tireGrad)"/>
      <circle r="70" fill="#f7f9fb" stroke="#aab5bd" stroke-width="3"/>
      <g stroke="#9aa6ae" stroke-width="2">
        <line x1="0" y1="-70" x2="0" y2="70"/>
        <line x1="-70" y1="0" x2="70" y2="0"/>
        <line x1="-49.5" y1="-49.5" x2="49.5" y2="49.5"/>
        <line x1="-49.5" y1="49.5" x2="49.5" y2="-49.5"/>
        <line x1="-20" y1="-67" x2="20" y2="67"/>
        <line x1="-67" y1="-20" x2="67" y2="20"/>
      </g>
      <circle r="6" fill="#7e8a92"/>
    </g>

    <!-- Frame -->
    <g stroke="url(#metalGrad)" stroke-width="10" stroke-linecap="round" stroke-linejoin="round" filter="url(#shadow)">
      <path d="M180 410 L300 320 L480 410" fill="none"/>
      <path d="M300 320 L410 330" fill="none"/>
      <path d="M300 320 L270 240" fill="none"/>
      <path d="M270 240 L430 220" fill="none"/>
      <path d="M430 220 L480 410" fill="none"/>
    </g>

    <!-- Seat and post -->
    <g stroke="#8f9aa3" stroke-width="8" stroke-linecap="round" filter="url(#shadow)">
      <line x1="270" y1="240" x2="260" y2="285"/>
    </g>
    <path d="M235 265 Q270 248 305 265 Q300 285 240 286 Z" fill="#2f2f2f" filter="url(#shadow)"/>

    <!-- Handlebars -->
    <g stroke="#8f9aa3" stroke-width="8" stroke-linecap="round" filter="url(#shadow)">
      <line x1="410" y1="330" x2="460" y2="280"/>
      <path d="M460 280 Q480 270 500 280" fill="none"/>
    </g>
    <circle cx="500" cy="280" r="10" fill="#333333"/>

    <!-- Crank and pedals -->
    <g transform="translate(300,410)" filter="url(#shadow)">
      <circle r="16" fill="#7e8a92"/>
      <g stroke="#7e8a92" stroke-width="8" stroke-linecap="round">
        <line x1="0" y1="0" x2="25" y2="25"/>
        <line x1="0" y1="0" x2="-22" y2="-28"/>
      </g>
      <g fill="#2f2f2f">
        <rect x="25" y="25" width="28" height="8" rx="4" ry="4"/>
        <rect x="-50" y="-32" width="28" height="8" rx="4" ry="4" transform="rotate(-35)"/>
      </g>
    </g>

    <!-- Chain -->
    <g stroke="#5d6870" stroke-width="3" opacity="0.7">
      <path d="M300 410 C350 410, 410 360, 480 410" fill="none"/>
    </g>
  </g>

  <!-- Pelican -->
  <g id="pelican" transform="translate(120, -10)">
    <!-- Tail feathers -->
    <path d="M210 350 q-30 -20 -15 -60 q20 10 45 0 q-10 35 -30 60 z" fill="#dfe7ec"/>
    <path d="M205 345 q-24 -16 -10 -46 q18 10 36 2 q-8 26 -26 44 z" fill="#cfd9df"/>

    <!-- Body -->
    <ellipse cx="290" cy="330" rx="120" ry="90" fill="url(#bodyGrad)" stroke="#c9d4dc" stroke-width="2" filter="url(#shadow)"/>

    <!-- Wing -->
    <path d="M260 300 q-70 20 -100 70 q60 10 120 -10 q50 -20 70 -50 q-40 -5 -90 -10 z"
          fill="#e7eef2" stroke="#cfd9df" stroke-width="2"/>
    <path d="M170 370 q60 -40 150 -55" fill="none" stroke="#bfcacf" stroke-width="3" opacity="0.6"/>

    <!-- Neck -->
    <path d="M330 320 q40 -40 60 -20 q20 20 -10 60 q-20 25 -50 30 q-35 6 -65 -6 q-10 -12 8 -20 q35 -8 57 -44 z"
          fill="#f3f7f9" stroke="#cfd9df" stroke-width="2"/>

    <!-- Head -->
    <ellipse cx="405" cy="300" rx="45" ry="35" fill="#f6fbff" stroke="#cfd9df" stroke-width="2"/>

    <!-- Eye -->
    <circle cx="420" cy="295" r="7" fill="#1b1b1b"/>
    <circle cx="422" cy="293" r="2.5" fill="#ffffff" opacity="0.9"/>

    <!-- Beak -->
    <path d="M430 300 q70 -10 120 10 q-70 30 -130 22 q-8 -8 10 -32 z" fill="url(#beakGrad)" stroke="#e09b1a" stroke-width="2"/>
    <!-- Throat pouch -->
    <path d="M405 315 q60 20 110 10 q-55 26 -115 16 q-5 -7 5 -26 z" fill="#ffcf77" opacity="0.85"/>

    <!-- Legs -->
    <g fill="url(#legGrad)" stroke="#e07e2a" stroke-width="2">
      <path d="M300 395 q-10 30 -5 50 q20 10 40 -5 q-10 -25 -5 -50 z"/>
      <path d="M350 395 q0 28 8 48 q20 10 40 -2 q-10 -25 -8 -48 z"/>
    </g>

    <!-- Feet on pedals -->
    <g fill="url(#legGrad)" stroke="#e07e2a" stroke-width="1.5">
      <path d="M324 458 q15 8 32 2 q10 -4 6 -10 q-5 -8 -18 -8 q-18 0 -20 16 z" />
      <path d="M375 448 q17 6 31 -2 q9 -5 4 -11 q-6 -7 -19 -6 q-16 2 -16 19 z" />
    </g>

    <!-- Small feather accents -->
    <g stroke="#c7d2d9" stroke-width="1.5" opacity="0.6">
      <path d="M240 335 q-8 10 -18 12"/>
      <path d="M250 345 q-10 10 -22 12"/>
      <path d="M260 355 q-10 10 -22 12"/>
    </g>
  </g>

  <!-- Motion lines -->
  <g stroke="#8bbacd" stroke-width="4" stroke-linecap="round" opacity="0.4">
    <path d="M130 430 q-40 5 -70 0"/>
    <path d="M120 455 q-30 0 -60 -6"/>
    <path d="M120 480 q-45 6 -85 -2"/>
  </g>

  <!-- Foreground grass -->
  <g opacity="0.7">
    <path d="M60 560 q10 -20 20 0 q10 -20 20 0 q10 -20 20 0" fill="none" stroke="#6db36d" stroke-width="6" stroke-linecap="round"/>
    <path d="M640 560 q8 -18 16 0 q8 -18 16 0 q8 -18 16 0" fill="none" stroke="#6db36d" stroke-width="6" stroke-linecap="round"/>
  </g>

  <!-- Ground shadow for bike and pelican -->
  <ellipse cx="440" cy="500" rx="240" ry="26" fill="#000000" opacity="0.15" filter="url(#soft)"/>
</svg>
