<?xml version="1.0" encoding="UTF-8" standalone="no"?>
<svg width="800" height="600" viewBox="0 0 800 600" xmlns="http://www.w3.org/2000/svg" role="img" aria-label="Pelican riding a bicycle">
  <defs>
    <linearGradient id="sky" x1="0" y1="0" x2="0" y2="1">
      <stop offset="0%" stop-color="#aee1ff"/>
      <stop offset="100%" stop-color="#e7f6ff"/>
    </linearGradient>
    <linearGradient id="roadGrad" x1="0" y1="0" x2="0" y2="1">
      <stop offset="0%" stop-color="#8a8f99"/>
      <stop offset="100%" stop-color="#666b74"/>
    </linearGradient>
    <radialGradient id="wheelShade" cx="50%" cy="50%" r="50%">
      <stop offset="0%" stop-color="#555"/>
      <stop offset="100%" stop-color="#222"/>
    </radialGradient>
    <linearGradient id="frameGrad" x1="0" y1="0" x2="1" y2="0">
      <stop offset="0%" stop-color="#2aa1ff"/>
      <stop offset="100%" stop-color="#1460c8"/>
    </linearGradient>
    <linearGradient id="beakGrad" x1="0" y1="0" x2="1" y2="0">
      <stop offset="0%" stop-color="#ffb13b"/>
      <stop offset="100%" stop-color="#ff7e00"/>
    </linearGradient>
    <linearGradient id="featherWhite" x1="0" y1="0" x2="0" y2="1">
      <stop offset="0%" stop-color="#ffffff"/>
      <stop offset="100%" stop-color="#e7eef4"/>
    </linearGradient>
    <linearGradient id="wingShade" x1="0" y1="0" x2="0" y2="1">
      <stop offset="0%" stop-color="#e9f2f8"/>
      <stop offset="100%" stop-color="#cfdbe6"/>
    </linearGradient>
    <filter id="shadow" x="-50%" y="-50%" width="200%" height="200%">
      <feGaussianBlur in="SourceAlpha" stdDeviation="3"/>
      <feOffset dx="0" dy="3" result="off"/>
      <feComponentTransfer>
        <feFuncA type="linear" slope="0.3"/>
      </feComponentTransfer>
      <feMerge>
        <feMergeNode/>
        <feMergeNode in="SourceGraphic"/>
      </feMerge>
    </filter>
  </defs>

  <rect width="100%" height="100%" fill="url(#sky)"/>
  <rect y="470" width="100%" height="130" fill="url(#roadGrad)"/>
  <rect y="470" width="100%" height="6" fill="#49505a"/>

  <!-- distant scenery -->
  <g opacity="0.35">
    <path d="M0,420 C80,380 140,380 220,420 C300,460 380,440 450,420 C520,400 600,410 700,430 L800,450 L800,470 L0,470 Z" fill="#b9d7ee"/>
    <circle cx="680" cy="120" r="48" fill="#ffe59a"/>
    <circle cx="680" cy="120" r="44" fill="#fff2bd" opacity="0.6"/>
  </g>

  <!-- Bicycle -->
  <g id="bicycle" transform="translate(120,40)" filter="url(#shadow)">
    <!-- Wheels -->
    <g transform="translate(170,440)">
      <circle r="80" fill="url(#wheelShade)"/>
      <circle r="70" fill="#111"/>
      <circle r="8" fill="#ccc"/>
      <g stroke="#cfd6de" stroke-width="2">
        <line x1="0" y1="0" x2="0" y2="-70"/>
        <line x1="0" y1="0" x2="61" y2="-35"/>
        <line x1="0" y1="0" x2="61" y2="35"/>
        <line x1="0" y1="0" x2="0" y2="70"/>
        <line x1="0" y1="0" x2="-61" y2="35"/>
        <line x1="0" y1="0" x2="-61" y2="-35"/>
      </g>
      <circle r="70" fill="none" stroke="#999" stroke-width="4"/>
    </g>

    <g transform="translate(440,440)">
      <circle r="80" fill="url(#wheelShade)"/>
      <circle r="70" fill="#111"/>
      <circle r="8" fill="#ccc"/>
      <g stroke="#cfd6de" stroke-width="2">
        <line x1="0" y1="0" x2="0" y2="-70"/>
        <line x1="0" y1="0" x2="61" y2="-35"/>
        <line x1="0" y1="0" x2="61" y2="35"/>
        <line x1="0" y1="0" x2="0" y2="70"/>
        <line x1="0" y1="0" x2="-61" y2="35"/>
        <line x1="0" y1="0" x2="-61" y2="-35"/>
      </g>
      <circle r="70" fill="none" stroke="#999" stroke-width="4"/>
    </g>

    <!-- Frame -->
    <g stroke="url(#frameGrad)" stroke-width="12" fill="none" stroke-linecap="round" stroke-linejoin="round">
      <path d="M170,440 L290,360 L440,440"/>
      <path d="M290,360 L355,270"/>
      <path d="M355,270 L500,250"/>
      <path d="M290,360 L220,270"/>
      <path d="M220,270 L350,250"/>
      <!-- chainstay and seatstay -->
      <path d="M170,440 L240,380 L440,440"/>
      <!-- seat tube -->
      <path d="M240,380 L240,290"/>
    </g>

    <!-- Seat -->
    <g transform="translate(240,290)">
      <rect x="-10" y="-20" width="80" height="20" rx="8" fill="#333"/>
      <rect x="55" y="-42" width="18" height="42" rx="4" fill="#444"/>
      <rect x="-20" y="-36" width="80" height="24" rx="12" fill="#222"/>
      <ellipse cx="18" cy="-24" rx="36" ry="10" fill="#111" opacity="0.6"/>
    </g>

    <!-- Handlebars -->
    <g stroke="#333" stroke-width="10" stroke-linecap="round" fill="none">
      <path d="M500,250 C520,240 540,238 560,246"/>
      <circle cx="562" cy="246" r="10" fill="#444" stroke="none"/>
      <path d="M500,250 C490,230 470,220 450,222"/>
      <circle cx="448" cy="222" r="10" fill="#444" stroke="none"/>
    </g>

    <!-- Crank and pedals -->
    <g transform="translate(290,360)">
      <circle r="12" fill="#bbb"/>
      <circle r="6" fill="#888"/>
      <g stroke="#444" stroke-width="8" stroke-linecap="round">
        <line x1="0" y1="0" x2="26" y2="-26"/>
        <line x1="0" y1="0" x2="-26" y2="26"/>
      </g>
      <g fill="#222">
        <rect x="26" y="-30" width="34" height="10" rx="4"/>
        <rect x="-60" y="20" width="34" height="10" rx="4"/>
      </g>
      <!-- chainring and chain -->
      <circle r="28" fill="none" stroke="#888" stroke-width="6"/>
      <path d="M290,0 A28,28 0 0 1 290,0" fill="none" stroke="#caa" stroke-width="0"/>
      <path d="M290,0" fill="none" stroke="#999" stroke-width="4"/>
      <path d="M28,0 L150,80" stroke="#666" stroke-width="6"/>
      <path d="M150,80 L170,80" stroke="#444" stroke-width="6"/>
    </g>
  </g>

  <!-- Pelican -->
  <g id="pelican" transform="translate(160,10)" filter="url(#shadow)">
    <!-- Tail -->
    <path d="M260,420 C230,430 210,450 205,470 C230,460 255,455 280,458 Z" fill="url(#wingShade)"/>

    <!-- Body -->
    <ellipse cx="320" cy="380" rx="120" ry="90" fill="url(#featherWhite)" stroke="#cfd6de" stroke-width="2"/>

    <!-- Wing -->
    <g transform="translate(300,360)">
      <path d="M0,0 C-40,10 -80,40 -100,80 C-40,70 30,70 80,40 C60,20 40,5 0,0 Z" fill="url(#wingShade)" stroke="#c2ceda" stroke-width="2"/>
      <path d="M-90,72 C-40,60 30,62 70,40" stroke="#b9c6d3" stroke-width="6" stroke-linecap="round" opacity="0.5"/>
    </g>

    <!-- Neck -->
    <path d="M360,350 C380,320 410,305 450,305 C470,305 490,312 505,328 C485,330 470,338 460,352 C450,365 445,380 420,390 C400,398 370,390 360,370 Z" fill="url(#featherWhite)" stroke="#cfd6de" stroke-width="2"/>

    <!-- Head -->
    <g transform="translate(505,328)">
      <ellipse cx="-10" cy="-6" rx="34" ry="28" fill="url(#featherWhite)" stroke="#cfd6de" stroke-width="2"/>
      <!-- Eye -->
      <circle cx="-20" cy="-10" r="6" fill="#222"/>
      <circle cx="-18" cy="-12" r="2" fill="#fff"/>
      <!-- Beak upper -->
      <path d="M-2,-6 C40,-10 100,-12 170,-4 C120,8 60,12 -2,0 Z" fill="url(#beakGrad)" stroke="#d17200" stroke-width="2"/>
      <!-- Beak lower/pouch -->
      <path d="M-2,-6 C80,10 120,28 150,42 C115,40 70,28 -2,8 Z" fill="#ff9f2a" stroke="#d17200" stroke-width="2" opacity="0.95"/>
      <!-- Beak tip highlight -->
      <circle cx="160" cy="-2" r="6" fill="#ffcc6b"/>
    </g>

    <!-- Legs -->
    <g fill="#ffad33" stroke="#d17a00" stroke-width="2">
      <!-- Thighs partially hidden by body -->
      <path d="M290,430 C300,440 305,455 304,470 L296,470 C296,452 292,442 285,434 Z"/>
      <path d="M350,430 C360,440 365,455 364,470 L356,470 C356,452 352,442 345,434 Z"/>
    </g>

    <!-- Feet on pedals -->
    <g transform="translate(280,370)">
      <g transform="rotate(35)">
        <path d="M40,20 C60,18 76,24 84,34 C78,36 66,38 48,32 Z" fill="#ffb23d" stroke="#d17a00" stroke-width="2"/>
        <rect x="50" y="30" width="34" height="10" rx="4" fill="#222"/>
      </g>
    </g>
    <g transform="translate(230,430)">
      <g transform="rotate(215)">
        <path d="M40,20 C60,18 76,24 84,34 C78,36 66,38 48,32 Z" fill="#ffb23d" stroke="#d17a00" stroke-width="2"/>
        <rect x="50" y="30" width="34" height="10" rx="4" fill="#222"/>
      </g>
    </g>

    <!-- Far wing (hint behind) -->
    <path d="M340,370 C300,380 270,410 260,440 C320,430 380,430 420,400 C390,390 365,380 340,370 Z" fill="#dfe7ef" opacity="0.6"/>

    <!-- Pelican shadow on body -->
    <ellipse cx="360" cy="410" rx="70" ry="26" fill="#c9d3de" opacity="0.35"/>

    <!-- Hand/wing gripping handlebar -->
    <g transform="translate(500,250)">
      <path d="M-40,90 C-30,80 -15,70 5,66 C18,64 30,68 40,76 C28,84 10,92 -12,96 C-24,98 -35,95 -40,90 Z" fill="url(#wingShade)" stroke="#c2ceda" stroke-width="2"/>
      <circle cx="58" cy="-4" r="12" fill="none" stroke="#333" stroke-width="10"/>
    </g>
  </g>

  <!-- Motion lines -->
  <g stroke="#93c8ff" stroke-width="6" stroke-linecap="round" opacity="0.7">
    <path d="M110,520 L70,520"/>
    <path d="M130,500 L80,500"/>
    <path d="M140,540 L90,540"/>
  </g>

  <!-- Ground shadow -->
  <ellipse cx="420" cy="520" rx="250" ry="28" fill="#000" opacity="0.15"/>
</svg>
